<svg version="1.0" xmlns="http://www.w3.org/2000/svg" xmlns:xlink="http://www.w3.org/1999/xlink" width="100%" height="100%" viewBox="0 0 340.000000 35.000000" preserveAspectRatio="xMidYMid meet" color-interpolation-filters="sRGB" style="margin: auto;">
  <rect x="0" y="0" width="100%" height="100%" fill="#333" fill-opacity="0" class="background"></rect>
   <g fill="#fff" class="iconlinesvg-g iconlinesvg" transform="translate(24.86444091796875,10.49252319335938)">
     <g class="tp-name">
       <g transform="translate(0, 3.8911701722019902)">
         <g>
           <g class="imagesvg">
             <g>
               <rect fill="#fff" fill-opacity="0" stroke-width="2" x="0" y="0" width="25.455125878010747" height="17.23481060963787" class="image-rect"></rect>
              <svg filter="url(#colors598684830)" x="0" y="0" width="25.455125878010747" height="17.23481060963787" class="image-svg-svg primary" style="overflow: visible;">
                <svg xmlns="http://www.w3.org/2000/svg" xmlns:xlink="http://www.w3.org/1999/xlink" version="1.1" x="0px" y="0px" viewBox="52.6870002746582 119.99990844726562 406.62701416015625 275.3139953613281" enable-background="new 0 0 512 512" xml:space="preserve">
                  <g  transform="matrix(1,0,0,-1,0,515.3139)"><g>
                    <path d="M256,395.314L52.687,192l72-72h262.627l72,72L256,395.314z M75.313,192L256,372.686L436.687,192l-56-56H131.313L75.313,192   z"></path></g><g><rect x="64" y="184" width="384" height="16"></rect></g><g><rect x="248" y="192" width="16" height="192"></rect></g><g><rect x="114.745" y="152" transform="matrix(0.7071 0.7071 -0.7071 0.7071 160 -66.2742)" width="90.51" height="16"></rect></g><g><rect x="216" y="114.745" transform="matrix(0.7071 0.7071 -0.7071 0.7071 178.7335 -111.5271)" width="16" height="90.51"></rect></g><g><rect x="242.745" y="152" transform="matrix(0.7071 0.7071 -0.7071 0.7071 197.4903 -156.7838)" width="90.51" height="16"></rect></g><g><rect x="344" y="114.745" transform="matrix(0.7071 0.7071 -0.7071 0.7071 216.2199 -202.0328)" width="16" height="90.51"></rect></g><g><rect x="100.669" y="280" transform="matrix(0.4472 0.8944 -0.8944 0.4472 372.5746 -26.8383)" width="214.663" height="16"></rect></g><g><rect x="296" y="180.669" transform="matrix(0.8944 0.4472 -0.4472 0.8944 160.8917 -105.548)" width="16" height="214.663"></rect></g></g></svg></svg> <defs><filter id="colors598684830"><feColorMatrix type="matrix" values="0 0 0 0 0.99609375  0 0 0 0 0.99609375  0 0 0 0 0.99609375  0 0 0 1 0" class="icon-fecolormatrix"></feColorMatrix></filter> <filter id="colorsf751735538"><feColorMatrix type="matrix" values="0 0 0 0 0.99609375  0 0 0 0 0.99609375  0 0 0 0 0.99609375  0 0 0 1 0" class="icon-fecolormatrix"></feColorMatrix></filter> <filter id="colorsb2586915064"><feColorMatrix type="matrix" values="0 0 0 0 0  0 0 0 0 0  0 0 0 0 0  0 0 0 1 0" class="icon-fecolormatrix"></feColorMatrix></filter></defs></g></g></g></g><g transform="translate(29, 0)"><g data-gra="path-name" fill="#fff" transform="scale(1)"><path d="M6.32-18.71L6.32 0L1.62 0L1.62-18.71L6.32-18.71Z" transform="translate(-1.6229290623717683, 19.102476148953627)"></path></g></g><g transform="translate(37, 0)"><g data-gra="path-name" fill="#fff" transform="scale(1)"><path d="M8.20 0.24L8.20 0.24Q4.80 0.24 2.92-1.57Q1.03-3.38 1.03-6.72L1.03-6.72Q1.03-10.17 2.78-12.02Q4.52-13.86 7.75-13.86L7.75-13.86Q10.83-13.86 12.51-12.26Q14.19-10.65 14.19-7.63L14.19-7.63L14.19-5.54L5.78-5.54Q5.83-4.40 6.62-3.75Q7.41-3.10 8.76-3.10L8.76-3.10Q10.00-3.10 11.04-3.34Q12.08-3.57 13.30-4.14L13.30-4.14L13.30-0.76Q12.19-0.19 11.01 0.02Q9.83 0.24 8.20 0.24ZM7.92-10.66L7.92-10.66Q7.09-10.66 6.53-10.14Q5.97-9.62 5.88-8.50L5.88-8.50L9.92-8.50Q9.89-9.49 9.36-10.07Q8.82-10.66 7.92-10.66Z" transform="translate(-1.033865921214608, 19.102476148953627)"></path></g></g><g transform="translate(54, 0)"><g data-gra="path-name" fill="#fff" transform="scale(1)"><path d="M0.12 0L4.51-6.95L0.35-13.62L5.69-13.62L7.75-9.80L9.87-13.62L15.22-13.62L10.95-6.95L15.39 0L10.05 0L7.75-4.14L5.47 0L0.12 0Z" transform="translate(-0.12021696758309394, 19.102476148953627)"></path></g></g><g transform="translate(73, 0)"><g data-gra="path-name" fill="#fff" transform="scale(1)"><path d="M13.76 0L10.51 0L9.61-1.80L9.51-1.80Q8.56-0.63 7.57-0.19Q6.59 0.24 5.03 0.24L5.03 0.24Q3.10 0.24 2.00-0.91Q0.89-2.07 0.89-4.16L0.89-4.16Q0.89-6.34 2.40-7.40Q3.92-8.46 6.79-8.60L6.79-8.60L9.06-8.67L9.06-8.86Q9.06-10.54 7.41-10.54L7.41-10.54Q5.91-10.54 3.62-9.53L3.62-9.53L2.26-12.63Q4.64-13.86 8.27-13.86L8.27-13.86Q10.89-13.86 12.33-12.56Q13.76-11.26 13.76-8.93L13.76-8.93L13.76 0ZM7.02-3.08L7.02-3.08Q7.87-3.08 8.48-3.62Q9.09-4.16 9.09-5.03L9.09-5.03L9.09-6.08L8.01-6.03Q5.69-5.95 5.69-4.33L5.69-4.33Q5.69-3.08 7.02-3.08Z" transform="translate(-0.8896055601148952, 19.102476148953627)"></path></g></g><g transform="translate(89, 0)"><g data-gra="path-name" fill="#fff" transform="scale(1)"><path d="M14.92 0L10.22 0L10.22-7.43Q10.22-8.79 9.83-9.48Q9.44-10.17 8.57-10.17L8.57-10.17Q7.38-10.17 6.85-9.22Q6.32-8.27 6.32-5.96L6.32-5.96L6.32 0L1.62 0L1.62-13.62L5.17-13.62L5.76-11.94L6.03-11.94Q6.64-12.90 7.70-13.38Q8.76-13.86 10.15-13.86L10.15-13.86Q12.41-13.86 13.66-12.55Q14.92-11.24 14.92-8.86L14.92-8.86L14.92 0Z" transform="translate(-1.6229290623717683, 19.102476148953627)"></path></g></g><g transform="translate(106, 0)"><g data-gra="path-name" fill="#fff" transform="scale(1)"><path d="M5.85 0.24L5.85 0.24Q4.40 0.24 3.31-0.59Q2.22-1.42 1.63-3.03Q1.03-4.64 1.03-6.79L1.03-6.79Q1.03-10.11 2.37-11.99Q3.70-13.86 6.03-13.86L6.03-13.86Q7.18-13.86 8.04-13.40Q8.90-12.95 9.61-11.87L9.61-11.87L9.70-11.87Q9.47-13.46 9.47-15.06L9.47-15.06L9.47-18.71L14.21-18.71L14.21 0L10.66 0L9.65-1.72L9.47-1.72Q8.26 0.24 5.85 0.24ZM7.78-3.47L7.78-3.47Q8.91-3.47 9.37-4.18Q9.83-4.89 9.87-6.37L9.87-6.37L9.87-6.74Q9.87-8.55 9.35-9.31Q8.84-10.07 7.73-10.07L7.73-10.07Q6.80-10.07 6.29-9.20Q5.78-8.33 5.78-6.72L5.78-6.72Q5.78-5.13 6.30-4.30Q6.82-3.47 7.78-3.47Z" transform="translate(-1.033865921214608, 19.102476148953627)"></path></g></g><g transform="translate(123, 0)"><g data-gra="path-name" fill="#fff" transform="scale(1)"><path d="M9.85-13.86L9.85-13.86Q10.46-13.86 11.01-13.76L11.01-13.76L11.28-13.72L10.86-9.28Q10.28-9.43 9.26-9.43L9.26-9.43Q7.72-9.43 7.02-8.72Q6.32-8.02 6.32-6.70L6.32-6.70L6.32 0L1.62 0L1.62-13.62L5.12-13.62L5.85-11.44L6.08-11.44Q6.67-12.53 7.72-13.19Q8.78-13.86 9.85-13.86Z" transform="translate(-1.6229290623717683, 19.102476148953627)"></path></g></g><g transform="translate(136, 0)"><g data-gra="path-name" fill="#fff" transform="scale(1)"><path d="M14.87 0L11.32 0L10.74-1.70L10.46-1.70Q9.87-0.76 8.82-0.26Q7.77 0.24 6.35 0.24L6.35 0.24Q4.10 0.24 2.85-1.06Q1.60-2.37 1.60-4.75L1.60-4.75L1.60-13.62L6.30-13.62L6.30-6.18Q6.30-4.84 6.68-4.16Q7.06-3.47 7.92-3.47L7.92-3.47Q9.14-3.47 9.65-4.43Q10.17-5.39 10.17-7.66L10.17-7.66L10.17-13.62L14.87-13.62L14.87 0Z" transform="translate(-1.5988856688551494, 19.102476148953627)"></path></g></g><g transform="translate(153, 0)"><g data-gra="path-name" fill="#fff" transform="scale(1)"><path d="M7.31-4.72L0.52-4.72L0.52-8.48L7.31-8.48L7.31-4.72Z" transform="translate(-0.516932960607304, 19.102476148953627)"></path></g></g><g transform="translate(163, 0)"><g data-gra="path-name" fill="#fff" transform="scale(1)"><path d="M12.33-3.87L12.33 0L1.90 0L1.90-17.58L12.33-17.58L12.33-13.76L6.65-13.76L6.65-11.00L11.91-11.00L11.91-7.19L6.65-7.19L6.65-3.87L12.33-3.87Z" transform="translate(-1.8994280878128844, 19.102476148953627)"></path></g></g><g transform="translate(177, 0)"><g data-gra="path-name" fill="#fff" transform="scale(1)"><path d="M23.05 0L18.35 0L18.35-7.41Q18.35-8.79 17.97-9.48Q17.59-10.17 16.77-10.17L16.77-10.17Q15.69-10.17 15.18-9.24Q14.68-8.32 14.68-6.35L14.68-6.35L14.68 0L9.97 0L9.97-7.41Q9.97-8.79 9.61-9.48Q9.24-10.17 8.44-10.17L8.44-10.17Q7.33-10.17 6.83-9.18Q6.32-8.20 6.32-5.96L6.32-5.96L6.32 0L1.62 0L1.62-13.62L5.17-13.62L5.76-11.94L6.03-11.94Q6.58-12.88 7.60-13.37Q8.63-13.86 9.94-13.86L9.94-13.86Q12.89-13.86 14.08-12.07L14.08-12.07L14.45-12.07Q15.03-12.91 16.05-13.39Q17.08-13.86 18.32-13.86L18.32-13.86Q20.74-13.86 21.89-12.62Q23.05-11.38 23.05-8.86L23.05-8.86L23.05 0Z" transform="translate(-1.6229290623717683, 19.102476148953627)"></path></g></g><g transform="translate(202, 0)"><g data-gra="path-name" fill="#fff" transform="scale(1)"><path d="M6.35-13.62L6.35 0L1.65 0L1.65-13.62L6.35-13.62ZM1.53-17.01L1.53-17.01Q1.53-18.07 2.12-18.59Q2.70-19.10 4.02-19.10L4.02-19.10Q5.33-19.10 5.93-18.57Q6.53-18.04 6.53-17.01L6.53-17.01Q6.53-14.94 4.02-14.94L4.02-14.94Q1.53-14.94 1.53-17.01Z" transform="translate(-1.5267554883052932, 19.102476148953627)"></path></g></g><g transform="translate(211, 0)"><g data-gra="path-name" fill="#fff" transform="scale(1)"><path d="M6.32-18.71L6.32 0L1.62 0L1.62-18.71L6.32-18.71Z" transform="translate(-1.6229290623717683, 19.102476148953627)"></path></g></g><g transform="translate(219, 0)"><g data-gra="path-name" fill="#fff" transform="scale(1)"><path d="" transform="translate(0, 19.102476148953627)"></path></g></g><g transform="translate(228, 0)"><g data-gra="path-name" fill="#fff" transform="scale(1)"><path d="M13.42 0L1.90 0L1.90-17.58L6.65-17.58L6.65-3.83L13.42-3.83L13.42 0Z" transform="translate(-1.8994280878128844, 19.102476148953627)"></path></g></g><g transform="translate(243, 0)"><g data-gra="path-name" fill="#fff" transform="scale(1)"><path d="M14.87 0L11.32 0L10.74-1.70L10.46-1.70Q9.87-0.76 8.82-0.26Q7.77 0.24 6.35 0.24L6.35 0.24Q4.10 0.24 2.85-1.06Q1.60-2.37 1.60-4.75L1.60-4.75L1.60-13.62L6.30-13.62L6.30-6.18Q6.30-4.84 6.68-4.16Q7.06-3.47 7.92-3.47L7.92-3.47Q9.14-3.47 9.65-4.43Q10.17-5.39 10.17-7.66L10.17-7.66L10.17-13.62L14.87-13.62L14.87 0Z" transform="translate(-1.5988856688551494, 19.102476148953627)"></path></g></g><g transform="translate(260, 0)"><g data-gra="path-name" fill="#fff" transform="scale(1)"><path d="M9.80 0.24L9.80 0.24Q8.76 0.24 7.95-0.10Q7.13-0.44 6.32-1.33L6.32-1.33L6.11-1.33Q6.32 0.10 6.32 0.44L6.32 0.44L6.32 5.91L1.62 5.91L1.62-13.62L5.45-13.62L6.11-11.89L6.32-11.89Q7.63-13.86 9.94-13.86L9.94-13.86Q12.20-13.86 13.49-11.99Q14.77-10.11 14.77-6.84L14.77-6.84Q14.77-3.55 13.43-1.65Q12.09 0.24 9.80 0.24ZM8.22-10.17L8.22-10.17Q7.19-10.17 6.77-9.43Q6.36-8.69 6.32-7.24L6.32-7.24L6.32-6.86Q6.32-5.11 6.79-4.33Q7.26-3.55 8.27-3.55L8.27-3.55Q9.17-3.55 9.58-4.32Q9.99-5.10 9.99-6.89L9.99-6.89Q9.99-8.64 9.58-9.41Q9.17-10.17 8.22-10.17Z" transform="translate(-1.6229290623717683, 19.102476148953627)"></path></g></g><g transform="translate(277, 0)"><g data-gra="path-name" fill="#fff" transform="scale(1)"><path d="M14.87 0L11.32 0L10.74-1.70L10.46-1.70Q9.87-0.76 8.82-0.26Q7.77 0.24 6.35 0.24L6.35 0.24Q4.10 0.24 2.85-1.06Q1.60-2.37 1.60-4.75L1.60-4.75L1.60-13.62L6.30-13.62L6.30-6.18Q6.30-4.84 6.68-4.16Q7.06-3.47 7.92-3.47L7.92-3.47Q9.14-3.47 9.65-4.43Q10.17-5.39 10.17-7.66L10.17-7.66L10.17-13.62L14.87-13.62L14.87 0Z" transform="translate(-1.5988856688551494, 19.102476148953627)"></path></g></g></g> <!----></g></svg>